<svg xmlns="http://www.w3.org/2000/svg" width="30" height="30">
    <path fill="#95E1D3" fill-rule="evenodd" d="M30 23.999c0 .651-.419 1.2-1 1.407v1.683c.581.207 1 .757 1 1.409 0 .828-.672 1.501-1.5 1.501-.652 0-1.202-.42-1.408-1.001h-1.684c-.207.581-.756 1.001-1.408 1.001-.652 0-1.202-.42-1.408-1.001h-1.684c-.207.581-.756 1.001-1.408 1.001-.652 0-1.201-.42-1.408-1.001h-1.684c-.207.581-.756 1.001-1.408 1.001-.652 0-1.202-.42-1.408-1.001h-1.684c-.206.581-.756 1.001-1.408 1.001-.652 0-1.202-.42-1.408-1.001H7.408c-.206.581-.756 1.001-1.408 1.001-.652 0-1.202-.42-1.408-1.001H2.908c-.207.581-.756 1.001-1.408 1.001-.828 0-1.5-.673-1.5-1.501 0-.652.419-1.202 1-1.409v-1.683c-.581-.207-1-.756-1-1.407 0-.654.419-1.202 1-1.409v-1.683c-.581-.208-1-.757-1-1.409 0-.651.419-1.201 1-1.408v-1.684c-.581-.206-1-.755-1-1.407s.419-1.202 1-1.41v-1.683c-.581-.206-1-.755-1-1.408 0-.652.419-1.202 1-1.407V7.406c-.581-.207-1-.756-1-1.408 0-.652.419-1.202 1-1.408V2.905C.419 2.7 0 2.15 0 1.498 0 .669.672-.001 1.5-.001c.652 0 1.201.417 1.408 1h1.684c.206-.583.756-1 1.408-1 .652 0 1.202.417 1.408 1h1.684c.206-.583.756-1 1.408-1 .652 0 1.202.417 1.408 1h1.684c.206-.583.756-1 1.408-1 .652 0 1.201.417 1.408 1h1.684c.207-.583.756-1 1.408-1 .652 0 1.201.417 1.408 1h1.684c.206-.583.756-1 1.408-1 .652 0 1.201.417 1.408 1h1.684c.206-.583.756-1 1.408-1 .828 0 1.5.67 1.5 1.499 0 .652-.419 1.202-1 1.407V4.59c.581.206 1 .756 1 1.408 0 .652-.419 1.201-1 1.408v1.685c.581.205 1 .755 1 1.407 0 .653-.419 1.202-1 1.408v1.683c.581.208 1 .758 1 1.41 0 .652-.419 1.201-1 1.407v1.684c.581.207 1 .757 1 1.408 0 .652-.419 1.201-1 1.409v1.683c.581.207 1 .755 1 1.409zM26 3.997H4v22.001h22V3.997zM13 19.998l7-8.499 4.5 7v5.999h-19l6-5.999 1.5 1.499zm-3-7c-1.657 0-3-1.343-3-3.001 0-1.657 1.343-2.999 3-2.999s3 1.342 3 2.999c0 1.658-1.343 3.001-3 3.001z"/>
</svg>
